<svg xmlns="http://www.w3.org/2000/svg" width="256" height="256" viewBox="0 0 100 100"><rect width="100" height="100" rx="20" fill="#3e29cc"></rect><path d="M19.59 67.40L19.59 67.40Q19.21 67.55 18.46 67.74Q17.71 67.92 16.81 67.92L16.81 67.92Q13.59 67.92 13.59 65.22L13.59 65.22L13.59 18.95Q13.96 18.80 14.75 18.61Q15.54 18.42 16.44 18.42L16.44 18.42Q19.59 18.42 19.59 21.13L19.59 21.13L19.59 34.63Q21.39 33.57 23.83 32.75Q26.26 31.92 29.34 31.92L29.34 31.92Q32.49 31.92 35.08 32.75Q37.66 33.57 39.54 35.26Q41.41 36.95 42.46 39.54Q43.51 42.13 43.51 45.58L43.51 45.58L43.51 67.40Q43.14 67.55 42.35 67.74Q41.56 67.92 40.74 67.92L40.74 67.92Q37.51 67.92 37.51 65.22L37.51 65.22L37.51 45.72Q37.51 41.22 35.04 39.05Q32.56 36.88 28.51 36.88L28.51 36.88Q25.89 36.88 23.60 37.81Q21.31 38.75 19.59 40.10L19.59 40.10L19.59 67.40ZM69.54 68.52L69.54 68.52Q66.91 68.52 64.59 67.92Q62.26 67.33 60.76 66.50L60.76 66.50L60.76 81.05Q60.39 81.20 59.64 81.39Q58.89 81.58 57.99 81.58L57.99 81.58Q54.76 81.58 54.76 78.80L54.76 78.80L54.76 39.20Q54.76 37.70 55.29 36.80Q55.81 35.90 57.46 34.92L57.46 34.92Q59.49 33.80 62.30 32.86Q65.11 31.92 68.71 31.92L68.71 31.92Q72.39 31.92 75.65 32.98Q78.91 34.02 81.28 36.24Q83.64 38.45 85.03 41.90Q86.41 45.35 86.41 50.15L86.41 50.15Q86.41 54.80 85.18 58.25Q83.94 61.70 81.69 63.99Q79.44 66.27 76.33 67.40Q73.21 68.52 69.54 68.52ZM68.71 63.57L68.71 63.57Q73.96 63.57 77.15 60.39Q80.34 57.20 80.34 50.15L80.34 50.15Q80.34 46.47 79.40 43.92Q78.46 41.38 76.85 39.80Q75.24 38.22 73.14 37.55Q71.04 36.88 68.71 36.88L68.71 36.88Q66.01 36.88 64.14 37.55Q62.26 38.22 60.76 39.05L60.76 39.05L60.76 61.17Q62.19 62.22 64.14 62.90Q66.09 63.57 68.71 63.57Z" fill="#fff"></path></svg>